<svg viewBox="0 0 97 44" fill="none" width="16" height="16" xmlns="http://www.w3.org/2000/svg">
    <path d="M4.8581 1.16735C5.88609 2.78307 7.05749 4.26549 8.22686 5.7681C10.8039 9.08839 13.3568 12.4491 16.1277 15.6118C16.9719 16.5752 17.9292 17.3972 19.2178 17.7022C24.388 18.914 28.7767 15.1675 29.3766 10.1063C29.9542 5.23693 26.6601 0.0767464 21.4373 0.0545304C16.0032 0.0343339 10.5676 0.0161571 5.13075 0C4.44407 0 4.44407 0.385752 4.65815 0.807857C4.71845 0.931115 4.78519 1.05111 4.8581 1.16735ZM41.5146 42.4125C41.1248 42.047 40.735 41.6814 40.3412 41.3219C38.0247 39.1811 13.7344 19.5905 2.88288 1.3673C2.81817 1.25126 2.75952 1.13194 2.70718 1.00982C2.69192 0.966167 2.66506 0.927494 2.62947 0.897959C2.59389 0.868425 2.55093 0.849145 2.50521 0.842191C2.30325 0.811897 2.2366 0.977507 2.15581 1.10676C1.83469 1.60966 1.70139 2.18727 1.54992 2.75075C0.616845 6.29725 0.212916 9.92049 0.0574037 13.568C-0.0432272 15.7686 -0.011529 17.9733 0.152327 20.1702C0.380547 23.0522 0.845065 25.8858 1.80641 28.6204C2.71323 31.2015 4.02802 33.5362 6.15673 35.3215C7.47153 36.4027 9.02406 37.1564 10.6868 37.5209C11.0382 37.6037 11.0907 37.5391 10.9695 37.1857C10.9493 37.1231 10.9251 37.0625 10.9029 37.0019C9.77458 34.0855 8.64493 31.1698 7.51393 28.2548C7.18674 27.4086 6.85552 26.5644 6.52632 25.7181C6.66111 25.7976 6.77042 25.9139 6.84139 26.0534C7.88352 27.8872 8.91556 29.7291 9.96779 31.5569C11.0826 33.4978 12.3207 35.3438 14.0333 36.8201C15.5402 38.1172 17.3103 39.0722 19.2218 39.6193C20.5829 40.0321 21.9858 40.2916 23.4045 40.3929C23.5176 40.3929 23.6529 40.4716 23.7337 40.3626C23.8145 40.2535 23.7014 40.1445 23.6428 40.0495C23.0369 39.0821 22.4169 38.1127 21.7968 37.1493L16.8871 29.5191C15.4585 27.3056 14.0374 25.0907 12.6236 22.8745L10.9453 20.2489L11.018 20.2085C11.0685 20.2671 11.121 20.3216 11.1675 20.3822C12.5812 22.1454 13.892 23.9711 15.235 25.7807C16.9416 28.0831 18.6543 30.3775 20.5204 32.5566C21.5303 33.7341 22.5623 34.8914 23.6731 35.9719C25.1984 37.4937 26.8761 38.8547 28.6798 40.0334C29.8641 40.7941 31.1195 41.438 32.4282 41.9561C33.9091 42.5426 35.4694 42.9041 37.0573 43.0285C38.5115 43.1435 39.9746 43.0531 41.4035 42.7599C41.5025 42.7397 41.6297 42.7458 41.658 42.6185C41.6863 42.4913 41.5772 42.463 41.5146 42.4125Z" fill="#1e2939"></path>
</svg>